<svg width="24" height="24" viewBox="0 0 24 24" fill="none" xmlns="http://www.w3.org/2000/svg">
<path fill-rule="evenodd" clip-rule="evenodd" d="M0 10.2C0 4.56669 4.56669 0 10.2 0C15.8333 0 20.4 4.56669 20.4 10.2C20.4 12.3846 19.7132 14.4088 18.5438 16.0684L22.8123 20.3339C23.2031 20.7244 23.2031 21.358 22.8123 21.7486L21.7519 22.8082C21.3615 23.1984 20.7287 23.1984 20.3382 22.8082L16.0698 18.5428C14.4099 19.7128 12.3852 20.4 10.2 20.4C4.56669 20.4 0 15.8333 0 10.2ZM10.2 17.4857C6.18261 17.4857 2.91424 14.2173 2.91424 10.2C2.91424 6.18264 6.18261 2.91426 10.2 2.91426C14.2173 2.91426 17.4857 6.18264 17.4857 10.2C17.4857 14.2173 14.2173 17.4857 10.2 17.4857Z" fill="#FF227F"/>
</svg>
